<?xml version="1.0" standalone="no"?>
<!DOCTYPE svg PUBLIC "-//W3C//DTD SVG 20010904//EN"
 "http://www.w3.org/TR/2001/REC-SVG-20010904/DTD/svg10.dtd">
<svg version="1.0" xmlns="http://www.w3.org/2000/svg"
 width="500.000000pt" height="500.000000pt" viewBox="0 0 500.000000 500.000000"
 preserveAspectRatio="xMidYMid meet">
<metadata>
Created by potrace 1.11, written by Peter Selinger 2001-2013
</metadata>
<g transform="translate(0.000000,500.000000) scale(0.100000,-0.100000)"
fill="#000000" stroke="none">
<path d="M2315 4463 c-337 -40 -561 -114 -840 -278 -318 -187 -606 -509 -769
-859 -54 -117 -112 -294 -141 -436 -36 -170 -45 -456 -21 -640 49 -369 191
-702 423 -990 71 -87 241 -254 328 -321 520 -400 1206 -515 1830 -307 906 302
1465 1221 1320 2170 -60 394 -236 757 -507 1043 -322 339 -731 551 -1181 610
-105 13 -358 18 -442 8z m465 -119 c180 -24 374 -86 551 -175 527 -264 900
-765 1004 -1349 23 -129 31 -402 16 -527 -94 -758 -618 -1378 -1336 -1582
-297 -84 -629 -95 -920 -30 -687 152 -1229 681 -1405 1369 -57 224 -70 535
-31 755 72 409 233 715 531 1015 165 167 278 250 467 346 344 173 720 233
1123 178z"/>
<path d="M2375 4249 c-421 -25 -807 -201 -1116 -509 -193 -192 -332 -413 -421
-670 -173 -496 -105 -1071 179 -1510 157 -243 356 -431 622 -590 132 -78 350
-157 536 -193 161 -31 481 -31 646 1 370 70 688 245 951 521 222 234 372 517
444 842 26 116 28 138 28 359 0 219 -2 243 -28 358 -91 412 -297 747 -616
1004 -358 289 -756 414 -1225 387z m397 -118 c297 -52 547 -166 773 -353 344
-287 543 -654 596 -1103 16 -132 6 -372 -20 -493 -144 -674 -658 -1183 -1321
-1308 -131 -25 -466 -26 -596 -2 -439 83 -817 330 -1078 706 -97 139 -189 348
-231 525 -37 153 -46 236 -46 412 0 227 33 396 116 606 194 488 625 862 1136
984 154 37 205 42 391 44 124 1 195 -4 280 -18z"/>
<path d="M2306 2866 c-8 -6 -64 -127 -126 -269 -62 -142 -116 -254 -120 -250
-5 4 -62 123 -128 263 l-120 255 -81 3 c-48 2 -81 -1 -81 -7 0 -5 19 -11 43
-13 l42 -3 3 -302 2 -303 -45 0 c-33 0 -45 -4 -45 -15 0 -12 19 -15 111 -15
84 0 110 3 107 13 -3 6 -23 13 -46 15 l-42 3 0 236 c0 130 2 234 4 232 2 -2
54 -112 116 -244 62 -132 118 -246 125 -253 10 -11 14 -11 22 0 6 7 63 132
128 278 65 146 119 267 121 269 2 2 4 -113 4 -257 l0 -261 -42 -3 c-23 -2 -43
-9 -46 -15 -3 -10 28 -13 133 -13 105 0 136 3 133 13 -3 6 -23 13 -46 15 l-42
3 2 302 3 302 43 3 c62 5 51 22 -15 23 -32 0 -68 2 -81 3 -12 2 -29 -2 -36 -8z"/>
<path d="M2598 2872 c-58 -4 -64 -22 -8 -22 l39 0 3 -305 3 -305 -42 0 c-32 0
-43 -4 -43 -15 0 -12 19 -15 111 -15 98 0 110 2 99 15 -7 8 -28 15 -46 15
l-34 0 0 230 c0 127 2 230 3 230 2 0 57 -113 122 -250 65 -138 123 -249 129
-247 6 2 63 120 128 263 64 142 121 268 127 279 7 14 10 -64 10 -242 l1 -263
-45 0 c-33 0 -45 -4 -45 -15 0 -13 22 -15 136 -15 120 0 135 2 124 15 -7 8
-28 15 -46 15 l-34 0 0 305 0 305 45 0 c25 0 45 4 45 9 0 12 -71 17 -135 11
l-49 -5 -115 -262 c-64 -144 -119 -259 -123 -255 -4 4 -61 122 -128 261 -66
140 -122 256 -123 258 -6 5 -61 8 -109 5z"/>
<path d="M1182 2688 c-39 -101 -94 -243 -122 -315 l-52 -133 -34 0 c-24 0 -34
-5 -34 -15 0 -12 17 -15 96 -15 72 0 95 3 92 13 -3 6 -20 13 -40 15 l-35 3 40
105 40 104 117 0 117 0 40 -102 41 -103 -34 -3 c-22 -2 -34 -9 -34 -18 0 -11
22 -14 121 -14 105 0 120 2 109 14 -6 8 -23 16 -37 18 -23 3 -35 28 -150 316
-112 279 -127 312 -147 312 -20 0 -31 -22 -94 -182z m117 -60 c24 -62 46 -119
48 -125 4 -10 -19 -13 -97 -13 -56 0 -100 4 -98 8 2 4 23 61 47 125 24 64 47
117 50 117 4 0 26 -51 50 -112z"/>
<path d="M3460 2861 c0 -6 19 -11 43 -13 l42 -3 3 -302 2 -303 -45 0 c-34 0
-45 -4 -45 -16 0 -13 24 -15 198 -12 183 3 200 5 245 27 70 34 100 79 105 155
5 78 -20 120 -94 156 l-51 25 31 20 c104 68 100 207 -7 255 -37 17 -66 20
-234 20 -114 0 -193 -4 -193 -9z m356 -34 c36 -19 54 -54 54 -107 0 -93 -44
-130 -157 -130 l-73 0 0 123 c0 68 3 127 8 131 12 13 135 0 168 -17z m23 -291
c38 -20 71 -83 71 -136 0 -51 -34 -116 -72 -140 -26 -16 -50 -20 -115 -20
l-83 0 0 161 0 162 83 -5 c49 -3 96 -12 116 -22z"/>
</g>
</svg>
